<svg width="16" height="14" viewBox="0 0 16 14" fill="none" xmlns="http://www.w3.org/2000/svg">
<path d="M6.40667 0.559987L-2.92987e-07 6.99999L6.40667 13.44C6.46453 13.516 6.53804 13.5786 6.62222 13.6237C6.70641 13.6688 6.7993 13.6953 6.89461 13.7014C6.98992 13.7075 7.08542 13.693 7.17466 13.659C7.26389 13.6249 7.34477 13.5721 7.41182 13.5041C7.47887 13.4361 7.53052 13.3545 7.56328 13.2648C7.59604 13.1751 7.60914 13.0794 7.6017 12.9841C7.59426 12.8889 7.56644 12.7964 7.52014 12.7129C7.47384 12.6294 7.41013 12.5568 7.33333 12.5L2.54 7.66665L15.2933 7.66665C15.4701 7.66665 15.6397 7.59641 15.7647 7.47139C15.8898 7.34637 15.96 7.1768 15.96 6.99999C15.96 6.82317 15.8898 6.6536 15.7647 6.52858C15.6397 6.40356 15.4701 6.33332 15.2933 6.33332L2.54 6.33332L7.33333 1.49999C7.45798 1.37445 7.52766 1.20454 7.52704 1.02763C7.52641 0.85072 7.45554 0.681305 7.33 0.556653C7.20446 0.432001 7.03455 0.362323 6.85764 0.362949C6.68073 0.363574 6.51132 0.434451 6.38667 0.559987L6.40667 0.559987Z" fill="black"/>
</svg>
