<svg width="24" height="24" viewBox="0 0 24 24" fill="none" xmlns="http://www.w3.org/2000/svg">
<path fill-rule="evenodd" clip-rule="evenodd" d="M12.2882 0.0430465C12.494 0.104919 12.6743 0.231402 12.8026 0.403767C12.9308 0.576131 13.0001 0.785211 13.0002 1.00005V8.00005H18.4972C20.4912 8.00005 21.6832 10.221 20.5802 11.883L12.8332 23.553C12.7144 23.7319 12.5412 23.8678 12.3391 23.9406C12.1371 24.0134 11.917 24.0192 11.7114 23.9572C11.5058 23.8951 11.3257 23.7686 11.1976 23.5962C11.0695 23.4238 11.0003 23.2148 11.0002 23V16H5.50225C3.50825 16 2.31625 13.78 3.41925 12.118L11.1662 0.447047C11.2851 0.268147 11.4584 0.132261 11.6604 0.0595002C11.8625 -0.0132605 12.0826 -0.0190297 12.2882 0.0430465ZM11.0002 4.31505L5.08725 13.224C5.03741 13.2993 5.00889 13.3867 5.0047 13.4769C5.00052 13.5671 5.02084 13.6567 5.06349 13.7363C5.10615 13.8159 5.16956 13.8824 5.24698 13.9288C5.32441 13.9753 5.41296 13.9999 5.50325 14H12.0002C12.2655 14 12.5198 14.1054 12.7074 14.2929C12.8949 14.4805 13.0002 14.7348 13.0002 15V19.685L18.9142 10.777C18.9644 10.7017 18.9931 10.6141 18.9974 10.5237C19.0017 10.4333 18.9814 10.3434 18.9386 10.2636C18.8957 10.1838 18.8321 10.1172 18.7544 10.0708C18.6766 10.0244 18.5878 9.99991 18.4972 10H12.0002C11.4562 10 11.0002 9.54505 11.0002 9.00005V4.31505Z" fill="#191919"/>
</svg>
