<svg width="25" height="25" viewBox="0 0 25 25" fill="none" xmlns="http://www.w3.org/2000/svg">
<path d="M16.6665 18.75C17.219 18.75 17.7489 18.9695 18.1396 19.3602C18.5303 19.7509 18.7498 20.2808 18.7498 20.8333C18.7498 21.3859 18.5303 21.9158 18.1396 22.3065C17.7489 22.6972 17.219 22.9167 16.6665 22.9167C16.114 22.9167 15.5841 22.6972 15.1934 22.3065C14.8027 21.9158 14.5832 21.3859 14.5832 20.8333C14.5832 20.2808 14.8027 19.7509 15.1934 19.3602C15.5841 18.9695 16.114 18.75 16.6665 18.75ZM16.6665 19.7917C16.3902 19.7917 16.1253 19.9014 15.9299 20.0968C15.7346 20.2921 15.6248 20.5571 15.6248 20.8333C15.6248 21.1096 15.7346 21.3746 15.9299 21.5699C16.1253 21.7653 16.3902 21.875 16.6665 21.875C16.9428 21.875 17.2077 21.7653 17.4031 21.5699C17.5984 21.3746 17.7082 21.1096 17.7082 20.8333C17.7082 20.5571 17.5984 20.2921 17.4031 20.0968C17.2077 19.9014 16.9428 19.7917 16.6665 19.7917ZM7.2915 18.75C7.84404 18.75 8.37394 18.9695 8.76464 19.3602C9.15534 19.7509 9.37484 20.2808 9.37484 20.8333C9.37484 21.3859 9.15534 21.9158 8.76464 22.3065C8.37394 22.6972 7.84404 22.9167 7.2915 22.9167C6.73897 22.9167 6.20907 22.6972 5.81836 22.3065C5.42766 21.9158 5.20817 21.3859 5.20817 20.8333C5.20817 20.2808 5.42766 19.7509 5.81836 19.3602C6.20907 18.9695 6.73897 18.75 7.2915 18.75ZM7.2915 19.7917C7.01524 19.7917 6.75028 19.9014 6.55493 20.0968C6.35958 20.2921 6.24984 20.5571 6.24984 20.8333C6.24984 21.1096 6.35958 21.3746 6.55493 21.5699C6.75028 21.7653 7.01524 21.875 7.2915 21.875C7.56777 21.875 7.83272 21.7653 8.02807 21.5699C8.22342 21.3746 8.33317 21.1096 8.33317 20.8333C8.33317 20.5571 8.22342 20.2921 8.02807 20.0968C7.83272 19.9014 7.56777 19.7917 7.2915 19.7917ZM18.7498 6.25H4.44775L7.104 12.5H15.6248C15.9686 12.5 16.2707 12.3333 16.4582 12.0833L19.5832 7.91667C19.7186 7.73958 19.7915 7.52083 19.7915 7.29167C19.7915 7.0154 19.6818 6.75045 19.4864 6.5551C19.2911 6.35975 19.0261 6.25 18.7498 6.25ZM15.6248 13.5417H7.15609L6.354 15.1667L6.24984 15.625C6.24984 15.9013 6.35958 16.1662 6.55493 16.3616C6.75028 16.5569 7.01524 16.6667 7.2915 16.6667H18.7498V17.7083H7.2915C6.73897 17.7083 6.20907 17.4888 5.81836 17.0981C5.42766 16.7074 5.20817 16.1775 5.20817 15.625C5.20786 15.2716 5.29748 14.9238 5.46859 14.6146L6.21859 13.0833L2.43734 4.16667H1.0415V3.125H3.12484L4.01025 5.20833H18.7498C19.3024 5.20833 19.8323 5.42783 20.223 5.81853C20.6137 6.20923 20.8332 6.73913 20.8332 7.29167C20.8332 7.8125 20.6561 8.25 20.3644 8.60417L17.3332 12.6562C16.9582 13.1875 16.3332 13.5417 15.6248 13.5417Z" fill="black"/>
</svg>
