<svg width="30" height="31" viewBox="0 0 30 31" fill="none" xmlns="http://www.w3.org/2000/svg">
<rect width="30" height="30" transform="translate(0 0.810059)" fill="white"/>
<path d="M22.2656 15.1851C22.2656 18.8179 19.5996 21.8354 16.1133 22.3628V17.2944H17.8125L18.1348 15.1851H16.1133V13.8374C16.1133 13.2515 16.4062 12.6948 17.3145 12.6948H18.2227V10.9077C18.2227 10.9077 17.4023 10.7612 16.582 10.7612C14.9414 10.7612 13.8574 11.7866 13.8574 13.603V15.1851H12.0117V17.2944H13.8574V22.3628C10.3711 21.8354 7.73438 18.8179 7.73438 15.1851C7.73438 11.1714 10.9863 7.91943 15 7.91943C19.0137 7.91943 22.2656 11.1714 22.2656 15.1851Z" fill="#04B1E9"/>
</svg>
