<svg width="20" height="20" viewBox="0 0 20 20" fill="none" xmlns="http://www.w3.org/2000/svg">
<path d="M10.0003 4.16667L16.667 4.16667M3.33366 15.8333L5.83366 15.8333M3.33366 4.16667L6.66699 4.16667M9.16699 15.8333L16.667 15.8333M14.167 10L16.667 10M3.33366 10L10.8337 10" stroke="black" stroke-width="0.833333" stroke-linecap="round"/>
<path d="M6.66667 4.16667C6.66667 5.08714 7.41286 5.83333 8.33333 5.83333C9.25381 5.83333 10 5.08714 10 4.16667C10 3.24619 9.25381 2.5 8.33333 2.5C7.41286 2.5 6.66667 3.24619 6.66667 4.16667Z" stroke="black" stroke-width="0.833333" stroke-linecap="round"/>
<path d="M10.8337 9.99999C10.8337 10.9205 11.5799 11.6667 12.5003 11.6667C13.4208 11.6667 14.167 10.9205 14.167 9.99999C14.167 9.07952 13.4208 8.33333 12.5003 8.33333C11.5799 8.33333 10.8337 9.07952 10.8337 9.99999Z" stroke="black" stroke-width="0.833333" stroke-linecap="round"/>
<path d="M5.83366 15.8333C5.83366 16.7538 6.57985 17.5 7.50033 17.5C8.4208 17.5 9.16699 16.7538 9.16699 15.8333C9.16699 14.9129 8.4208 14.1667 7.50033 14.1667C6.57985 14.1667 5.83366 14.9129 5.83366 15.8333Z" stroke="black" stroke-width="0.833333" stroke-linecap="round"/>
</svg>
