<svg width="16" height="10" viewBox="0 0 16 10" fill="none" xmlns="http://www.w3.org/2000/svg">
<path d="M1.33334 10C1.09723 10 0.899447 9.92 0.740003 9.76C0.580559 9.6 0.500558 9.40222 0.500003 9.16667C0.499447 8.93111 0.579447 8.73333 0.740003 8.57333C0.900559 8.41333 1.09834 8.33333 1.33334 8.33333H14.6667C14.9028 8.33333 15.1008 8.41333 15.2608 8.57333C15.4208 8.73333 15.5006 8.93111 15.5 9.16667C15.4994 9.40222 15.4194 9.60028 15.26 9.76083C15.1006 9.92139 14.9028 10.0011 14.6667 10H1.33334ZM1.33334 5.83333C1.09723 5.83333 0.899447 5.75333 0.740003 5.59333C0.580559 5.43333 0.500558 5.23556 0.500003 5C0.499447 4.76444 0.579447 4.56667 0.740003 4.40667C0.900559 4.24667 1.09834 4.16667 1.33334 4.16667H14.6667C14.9028 4.16667 15.1008 4.24667 15.2608 4.40667C15.4208 4.56667 15.5006 4.76444 15.5 5C15.4994 5.23556 15.4194 5.43361 15.26 5.59417C15.1006 5.75472 14.9028 5.83444 14.6667 5.83333H1.33334ZM1.33334 1.66667C1.09723 1.66667 0.899447 1.58667 0.740003 1.42667C0.580559 1.26667 0.500558 1.06889 0.500003 0.833333C0.499447 0.597778 0.579447 0.4 0.740003 0.24C0.900559 0.0800001 1.09834 0 1.33334 0H14.6667C14.9028 0 15.1008 0.0800001 15.2608 0.24C15.4208 0.4 15.5006 0.597778 15.5 0.833333C15.4994 1.06889 15.4194 1.26694 15.26 1.4275C15.1006 1.58806 14.9028 1.66778 14.6667 1.66667H1.33334Z" fill="black"/>
</svg>
