<svg width="31" height="31" viewBox="0 0 31 31" fill="none" xmlns="http://www.w3.org/2000/svg">
<rect width="30" height="30" transform="translate(0.100098 0.810059)" fill="white"/>
<path d="M15.5303 11.8159C17.376 11.8159 18.8994 13.3394 18.8994 15.1851C18.8994 17.0601 17.376 18.5542 15.5303 18.5542C13.6553 18.5542 12.1611 17.0601 12.1611 15.1851C12.1611 13.3394 13.6553 11.8159 15.5303 11.8159ZM15.5303 17.3823C16.7314 17.3823 17.6982 16.4155 17.6982 15.1851C17.6982 13.9839 16.7314 13.0171 15.5303 13.0171C14.2998 13.0171 13.333 13.9839 13.333 15.1851C13.333 16.4155 14.3291 17.3823 15.5303 17.3823ZM19.8076 11.6987C19.8076 12.1382 19.4561 12.4897 19.0166 12.4897C18.5771 12.4897 18.2256 12.1382 18.2256 11.6987C18.2256 11.2593 18.5771 10.9077 19.0166 10.9077C19.4561 10.9077 19.8076 11.2593 19.8076 11.6987ZM22.0342 12.4897C22.0928 13.5737 22.0928 16.8257 22.0342 17.9097C21.9756 18.9644 21.7412 19.8726 20.9795 20.6636C20.2178 21.4253 19.2803 21.6597 18.2256 21.7183C17.1416 21.7769 13.8896 21.7769 12.8057 21.7183C11.751 21.6597 10.8428 21.4253 10.0518 20.6636C9.29004 19.8726 9.05566 18.9644 8.99707 17.9097C8.93848 16.8257 8.93848 13.5737 8.99707 12.4897C9.05566 11.4351 9.29004 10.4976 10.0518 9.73584C10.8428 8.97412 11.751 8.73975 12.8057 8.68115C13.8896 8.62256 17.1416 8.62256 18.2256 8.68115C19.2803 8.73975 20.2178 8.97412 20.9795 9.73584C21.7412 10.4976 21.9756 11.4351 22.0342 12.4897ZM20.6279 19.0522C20.9795 18.2026 20.8916 16.1519 20.8916 15.1851C20.8916 14.2476 20.9795 12.1968 20.6279 11.3179C20.3936 10.7612 19.9541 10.2925 19.3975 10.0874C18.5186 9.73584 16.4678 9.82373 15.5303 9.82373C14.5635 9.82373 12.5127 9.73584 11.6631 10.0874C11.0771 10.3218 10.6377 10.7612 10.4033 11.3179C10.0518 12.1968 10.1396 14.2476 10.1396 15.1851C10.1396 16.1519 10.0518 18.2026 10.4033 19.0522C10.6377 19.6382 11.0771 20.0776 11.6631 20.312C12.5127 20.6636 14.5635 20.5757 15.5303 20.5757C16.4678 20.5757 18.5186 20.6636 19.3975 20.312C19.9541 20.0776 20.4229 19.6382 20.6279 19.0522Z" fill="#04B1E9"/>
</svg>
