<svg width="31" height="31" viewBox="0 0 31 31" fill="none" xmlns="http://www.w3.org/2000/svg">
<rect width="30" height="30" transform="translate(0.399902 0.810059)" fill="white"/>
<path d="M12.207 20.8101H9.48242V12.0503H12.207V20.8101ZM10.8301 10.8784C9.98047 10.8784 9.27734 10.146 9.27734 9.26709C9.27734 8.41748 9.98047 7.71436 10.8301 7.71436C11.709 7.71436 12.4121 8.41748 12.4121 9.26709C12.4121 10.146 11.709 10.8784 10.8301 10.8784ZM22.373 20.8101H19.6777V16.562C19.6777 15.5366 19.6484 14.2476 18.2422 14.2476C16.8359 14.2476 16.6309 15.3315 16.6309 16.4741V20.8101H13.9062V12.0503H16.5137V13.2515H16.543C16.9238 12.5776 17.8027 11.8452 19.1211 11.8452C21.875 11.8452 22.4023 13.6616 22.4023 16.0054V20.8101H22.373Z" fill="#04B1E9"/>
</svg>
