<svg width="24" height="24" viewBox="0 0 24 24" fill="none" xmlns="http://www.w3.org/2000/svg">
<path d="M21 12C21.0028 13.7868 20.4714 15.5336 19.474 17.016C18.6514 18.243 17.5391 19.2484 16.2356 19.9433C14.932 20.6382 13.4772 21.0011 12 21C10.5228 21.0011 9.06804 20.6382 7.76444 19.9433C6.46085 19.2484 5.34858 18.243 4.526 17.016C3.74273 15.8484 3.2439 14.5136 3.06951 13.1184C2.89511 11.7233 3.05 10.3068 3.52175 8.98229C3.9935 7.65782 4.769 6.4623 5.78607 5.49156C6.80314 4.52082 8.0335 3.80187 9.37851 3.39234C10.7235 2.98281 12.1458 2.8941 13.5312 3.13331C14.9167 3.37252 16.2269 3.933 17.3567 4.76982C18.4865 5.60664 19.4046 6.69653 20.0373 7.95211C20.67 9.20768 20.9997 10.594 21 12Z" stroke="black" stroke-width="0.833333"/>
<path d="M13.5004 9C13.5004 9.39782 13.3423 9.77936 13.061 10.0607C12.7797 10.342 12.3982 10.5 12.0004 10.5V11.5C12.3287 11.5 12.6538 11.4353 12.9571 11.3097C13.2604 11.1841 13.536 10.9999 13.7681 10.7678C14.0003 10.5356 14.1844 10.26 14.3101 9.95671C14.4357 9.65339 14.5004 9.3283 14.5004 9H13.5004ZM12.0004 10.5C11.6026 10.5 11.221 10.342 10.9397 10.0607C10.6584 9.77936 10.5004 9.39782 10.5004 9H9.50037C9.50037 9.3283 9.56504 9.65339 9.69068 9.95671C9.81631 10.26 10.0005 10.5356 10.2326 10.7678C10.7014 11.2366 11.3373 11.5 12.0004 11.5V10.5ZM10.5004 9C10.5004 8.60218 10.6584 8.22064 10.9397 7.93934C11.221 7.65804 11.6026 7.5 12.0004 7.5V6.5C11.3373 6.5 10.7014 6.76339 10.2326 7.23223C9.76377 7.70107 9.50037 8.33696 9.50037 9H10.5004ZM12.0004 7.5C12.3982 7.5 12.7797 7.65804 13.061 7.93934C13.3423 8.22064 13.5004 8.60218 13.5004 9H14.5004C14.5004 8.33696 14.237 7.70107 13.7681 7.23223C13.2993 6.76339 12.6634 6.5 12.0004 6.5V7.5ZM5.16637 17.856L4.68637 17.714L4.60938 17.975L4.78637 18.182L5.16637 17.856ZM18.8344 17.856L19.2144 18.182L19.3914 17.975L19.3134 17.714L18.8344 17.856ZM9.00037 15.5H15.0004V14.5H9.00037V15.5ZM9.00037 14.5C8.03123 14.4999 7.08794 14.8126 6.31083 15.3917C5.53372 15.9708 4.96333 16.7853 4.68637 17.714L5.64537 17.999C5.86095 17.2767 6.30393 16.6434 6.90843 16.1931C7.51292 15.7428 8.24662 15.4997 9.00037 15.5V14.5ZM12.0004 20.5C10.7736 20.5013 9.56123 20.2364 8.4468 19.7237C7.33237 19.2109 6.34246 18.4625 5.54537 17.53L4.78637 18.182C5.67743 19.2238 6.78381 20.0599 8.02924 20.6327C9.27468 21.2055 10.6295 21.5014 12.0004 21.5V20.5ZM15.0004 15.5C15.7543 15.4998 16.4881 15.743 17.0926 16.1935C17.6971 16.6439 18.14 17.2775 18.3554 18L19.3134 17.714C19.0364 16.7853 18.467 15.9708 17.6899 15.3917C16.9128 14.8126 15.9695 14.4999 15.0004 14.5V15.5ZM18.4554 17.53C17.6583 18.4625 16.6684 19.2109 15.5539 19.7237C14.4395 20.2364 13.2271 20.5013 12.0004 20.5V21.5C13.3712 21.5014 14.7261 21.2055 15.9715 20.6327C17.2169 20.0599 18.3233 19.2238 19.2144 18.182L18.4554 17.53Z" fill="black"/>
</svg>
