<svg width="24" height="10" viewBox="0 0 24 10" fill="none" xmlns="http://www.w3.org/2000/svg">
<g clip-path="url(#clip0_395_171)">
<path d="M20.9187 9.92551H3.08165C1.36313 9.92551 -0.0146484 8.52252 -0.0146484 6.8061V3.05983C-0.0146484 1.32849 1.37794 -0.0595703 3.08165 -0.0595703H20.9187C22.6372 -0.0595703 24.015 1.34342 24.015 3.05983V6.8061C24.015 8.52252 22.6372 9.92551 20.9187 9.92551Z" fill="#5AFEAE"/>
<path d="M19.6883 3.14932L18.4587 7.88066V7.89559H19.4216L20.6512 3.16424H19.6883V3.14932ZM4.48828 5.83589C4.34013 5.91051 4.19199 5.94037 4.02902 5.94037C3.68828 5.94037 3.49569 5.88066 3.46606 5.59708V5.58216C3.46606 5.56723 3.46606 5.56723 3.46606 5.5523V4.73141V4.64186V4.05977V3.82096V3.73141V3.17917L2.6068 3.28365C3.18458 3.16425 3.5105 2.71648 3.5105 2.2538V1.97021H2.54754V3.29857L2.48828 3.3135V5.76126C2.51791 6.44783 2.97717 6.86574 3.7031 6.86574C3.96976 6.86574 4.25124 6.80604 4.47347 6.70156L4.48828 5.83589Z" fill="#292929"/>
<path d="M4.63673 2.97016L1.94043 3.38807V4.07464L4.63673 3.65673V2.97016ZM4.63673 3.98509L1.94043 4.403V5.05972L4.63673 4.64181V3.98509ZM7.65895 4.29852C7.6145 3.53733 7.14043 3.07464 6.37006 3.07464C5.92562 3.07464 5.55524 3.25375 5.30339 3.5821C5.05154 3.91046 4.91821 4.38808 4.91821 4.97016C4.91821 5.55225 5.05154 6.02987 5.30339 6.35822C5.55524 6.68658 5.92562 6.85076 6.37006 6.85076C7.14043 6.85076 7.6145 6.403 7.65895 5.62688V6.77613H8.62191V3.16419L7.65895 3.31345V4.29852ZM7.71821 4.97016C7.71821 5.64181 7.36265 6.08957 6.8145 6.08957C6.25154 6.08957 5.9108 5.67166 5.9108 4.97016C5.9108 4.26867 6.25154 3.85076 6.8145 3.85076C7.08117 3.85076 7.31821 3.95524 7.48117 4.16419C7.62932 4.35822 7.71821 4.64181 7.71821 4.97016ZM11.4219 3.07464C10.6515 3.07464 10.1775 3.5224 10.133 4.29852V2.10449L9.17006 2.25375V6.77613H10.133V5.62688C10.1775 6.403 10.6515 6.85076 11.4219 6.85076C12.3256 6.85076 12.8738 6.14927 12.8738 4.97016C12.8738 3.79106 12.3256 3.07464 11.4219 3.07464ZM10.9923 6.08957C10.4441 6.08957 10.0886 5.65673 10.0886 4.97016C10.0886 4.64181 10.1775 4.35822 10.3256 4.16419C10.4886 3.95524 10.7108 3.85076 10.9923 3.85076C11.5552 3.85076 11.896 4.26867 11.896 4.97016C11.896 5.67166 11.5552 6.08957 10.9923 6.08957ZM15.4812 3.07464C14.7108 3.07464 14.2367 3.5224 14.1923 4.29852V2.10449L13.2293 2.25375V6.77613H14.1923V5.62688C14.2367 6.403 14.7108 6.85076 15.4812 6.85076C16.3849 6.85076 16.933 6.14927 16.933 4.97016C16.933 3.79106 16.3849 3.07464 15.4812 3.07464ZM15.0515 6.08957C14.5034 6.08957 14.1478 5.65673 14.1478 4.97016C14.1478 4.64181 14.2367 4.35822 14.3849 4.16419C14.5478 3.95524 14.7701 3.85076 15.0515 3.85076C15.6145 3.85076 15.9552 4.26867 15.9552 4.97016C15.9552 5.67166 15.6145 6.08957 15.0515 6.08957ZM16.933 3.14927H17.9552L18.7849 6.77613H17.8664L16.933 3.14927ZM21.4367 3.5224V3.23882H21.3182V3.17912H21.6293V3.23882H21.5108V3.5224H21.4367ZM21.6441 3.5224V3.16419H21.7627L21.8219 3.32837C21.8367 3.37315 21.8515 3.38808 21.8515 3.403C21.8515 3.38808 21.8664 3.37315 21.8812 3.32837L21.9404 3.16419H22.0589V3.5224H21.9849V3.23882L21.8812 3.5224H21.8071L21.7182 3.23882V3.5224H21.6441Z" fill="#292929"/>
</g>
<defs>
<clipPath id="clip0_395_171">
<rect width="24" height="10" fill="white"/>
</clipPath>
</defs>
</svg>
