<svg width="31" height="31" viewBox="0 0 31 31" fill="none" xmlns="http://www.w3.org/2000/svg">
<rect width="30" height="30" transform="translate(0.799805 0.810059)" fill="white"/>
<path d="M22.8022 13.8374H22.7729C21.4253 13.8374 20.1948 13.4272 19.1987 12.6948V17.939C19.1987 20.5757 17.0601 22.6851 14.4233 22.6851C11.7866 22.6851 9.67725 20.5757 9.67725 17.939C9.67725 15.3022 11.7866 13.1636 14.4233 13.1636C14.6577 13.1636 14.8628 13.1929 15.0972 13.2222V15.8589C14.8628 15.771 14.6577 15.7417 14.4233 15.7417C13.2222 15.7417 12.2261 16.7378 12.2261 17.939C12.2261 19.1401 13.2222 20.1362 14.4233 20.1362C15.6245 20.1362 16.6206 19.1401 16.6206 17.939V7.68506H19.1987C19.1987 7.71436 19.1987 7.71436 19.1987 7.74365C19.1987 7.94873 19.1987 8.15381 19.2573 8.35889C19.4331 9.32568 20.019 10.1753 20.8394 10.7026C21.396 11.0835 22.0698 11.2886 22.7729 11.2886C22.7729 11.2886 22.7729 11.2886 22.8022 11.2886V13.8374Z" fill="#04B1E9"/>
</svg>
