<svg width="31" height="31" viewBox="0 0 31 31" fill="none" xmlns="http://www.w3.org/2000/svg">
<rect width="30" height="30" transform="translate(0.700195 0.810059)" fill="white"/>
<path d="M21.6475 12.1382C21.6475 12.2847 21.6475 12.4019 21.6475 12.5483C21.6475 16.6206 18.5713 21.2788 12.917 21.2788C11.1592 21.2788 9.54785 20.7808 8.2002 19.9019C8.43457 19.9312 8.66895 19.9604 8.93262 19.9604C10.3682 19.9604 11.6865 19.4624 12.7412 18.6421C11.3936 18.6128 10.251 17.7339 9.87012 16.5034C10.0752 16.5327 10.251 16.562 10.4561 16.562C10.7197 16.562 11.0127 16.5034 11.2471 16.4448C9.84082 16.1519 8.78613 14.9214 8.78613 13.4272V13.3979C9.19629 13.6323 9.69434 13.7495 10.1924 13.7788C9.34277 13.2222 8.81543 12.2847 8.81543 11.23C8.81543 10.644 8.96191 10.1167 9.22559 9.67725C10.749 11.5229 13.0342 12.7534 15.583 12.8999C15.5244 12.6655 15.4951 12.4312 15.4951 12.1968C15.4951 10.4976 16.8721 9.12061 18.5713 9.12061C19.4502 9.12061 20.2412 9.47217 20.8271 10.0874C21.501 9.94092 22.1748 9.67725 22.7607 9.32568C22.5264 10.0581 22.0576 10.644 21.4131 11.0249C22.0283 10.9663 22.6436 10.7905 23.1709 10.5562C22.7607 11.1714 22.2334 11.6987 21.6475 12.1382Z" fill="#04B1E9"/>
</svg>
