<svg width="18" height="18" viewBox="0 0 18 18" fill="none" xmlns="http://www.w3.org/2000/svg">
<path d="M9.0335 0.666671C4.4835 0.666671 0.775163 4.375 0.775163 8.925C0.775163 10.3833 1.1585 11.8 1.87516 13.05L0.708496 17.3333L5.0835 16.1833C6.29183 16.8417 7.65016 17.1917 9.0335 17.1917C13.5835 17.1917 17.2918 13.4833 17.2918 8.93334C17.2918 6.725 16.4335 4.65 14.8752 3.09167C14.1111 2.32009 13.201 1.70831 12.1981 1.29197C11.1952 0.875636 10.1194 0.663073 9.0335 0.666671ZM9.04183 2.05834C10.8752 2.05834 12.5918 2.775 13.8918 4.075C14.5297 4.71294 15.0354 5.47043 15.38 6.3041C15.7246 7.13777 15.9014 8.03124 15.9002 8.93334C15.9002 12.7167 12.8168 15.7917 9.0335 15.7917C7.80016 15.7917 6.59183 15.4667 5.54183 14.8333L5.29183 14.6917L2.69183 15.375L3.3835 12.8417L3.21683 12.575C2.52895 11.482 2.16489 10.2164 2.16683 8.925C2.17516 5.14167 5.25016 2.05834 9.04183 2.05834ZM6.1085 5.10834C5.97516 5.10834 5.75016 5.15834 5.5585 5.36667C5.37516 5.575 4.8335 6.08334 4.8335 7.09167C4.8335 8.10834 5.57516 9.08334 5.66683 9.225C5.7835 9.36667 7.1335 11.45 9.2085 12.3333C9.70016 12.5583 10.0835 12.6833 10.3835 12.775C10.8752 12.9333 11.3252 12.9083 11.6835 12.8583C12.0835 12.8 12.9002 12.3583 13.0752 11.875C13.2502 11.3917 13.2502 10.9833 13.2002 10.8917C13.1418 10.8083 13.0085 10.7583 12.8002 10.6667C12.5918 10.55 11.5752 10.05 11.3918 9.98334C11.2002 9.91667 11.0835 9.88334 10.9252 10.0833C10.7918 10.2917 10.3918 10.7583 10.2752 10.8917C10.1502 11.0333 10.0335 11.05 9.8335 10.95C9.61683 10.8417 8.95016 10.625 8.16683 9.925C7.55016 9.375 7.14183 8.7 7.01683 8.49167C6.91683 8.29167 7.0085 8.16667 7.1085 8.075C7.20016 7.98334 7.3335 7.83334 7.41683 7.70834C7.52516 7.59167 7.5585 7.5 7.62516 7.36667C7.69183 7.225 7.6585 7.10834 7.6085 7.00834C7.5585 6.91667 7.14183 5.88334 6.96683 5.475C6.80016 5.075 6.6335 5.125 6.50016 5.11667C6.3835 5.11667 6.25016 5.10834 6.1085 5.10834Z" fill="black"/>
</svg>
